<?xml version="1.0" encoding="UTF-8"?>
<svg width="78px" height="74px" viewBox="0 0 78 74" version="1.1" xmlns="http://www.w3.org/2000/svg" xmlns:xlink="http://www.w3.org/1999/xlink">
    <!-- Generator: Sketch 57 (83077) - https://sketch.com -->
    <title>session-icon</title>
    <desc>Created with Sketch.</desc>
    <g id="Demo-ðŸ•¹ï¸" stroke="none" stroke-width="1" fill="none" fill-rule="evenodd">
        <g id="Inspired-Practice-Planing-Page" transform="translate(-1046.000000, -1723.000000)" fill="#6D4DC6" fill-rule="nonzero">
            <g id="studio-difference" transform="translate(167.000000, 1189.000000)">
                <g id="steps" transform="translate(1.000000, 533.000000)">
                    <g id="Leave-the-session-fe-2" transform="translate(752.000000, 1.000000)">
                        <g id="session-icon" transform="translate(126.000000, 0.000000)">
                            <path d="M41.5592024,40.6024847 C43.9319612,39.4220353 44.7063861,35.9504292 43.2960915,32.8662791 C41.8833228,29.7717969 38.8128393,28.2142236 36.4400805,29.394673 C34.0673218,30.5751224 33.2928969,34.0467285 34.7056656,37.1412107 C36.1184344,40.2305269 39.1889179,41.7881002 41.5592024,40.6024847 Z" id="Path"></path>
                            <path d="M48.0786436,22 C50.3397532,36.4032637 40.2677606,47.200096 40.2677606,47.200096 C40.2677606,47.200096 31.9639459,32.9016559 18,28.5864171 C45.1627441,48.799904 29.7028363,74 29.7028363,74 L37.5652196,74 C37.567672,74 55.842931,41.9015119 48.0786436,22 Z" id="Path"></path>
                            <path d="M32.5000252,24 C32.358651,23.7679112 32.2149966,23.5206862 32.0713422,23.2482341 C31.4032352,21.9717457 31.0976846,20.7860747 31.0976846,20.7860747 C31.0976846,20.7860747 31.8684019,21.679112 32.5365089,22.9480323 C32.6756028,23.2179617 32.7964549,23.4828456 32.9081861,23.735116 C33.0130767,23.1271443 33.136209,21.8784057 32.6026355,20.8491423 C31.8661216,19.4389506 30.1696315,19 30.1696315,19 C30.1696315,19 29.6634208,20.8466196 30.3999346,22.259334 C30.9335081,23.2885974 31.9732924,23.7956609 32.5000252,24 Z" id="Path"></path>
                            <path d="M51,34.7806625 C51.4179775,35.210385 52.3213483,36 53.3752809,36 C54.8269663,36 56,34.4986571 56,34.4986571 C56,34.4986571 54.8292135,33 53.3752809,33 C52.3213483,33 51.4179775,33.789615 51,34.2193375 C51.2494382,34.1978514 51.5101124,34.1817368 51.7910112,34.1817368 C53.1033708,34.1817368 54.1752809,34.4932856 54.1752809,34.4932856 C54.1752809,34.4932856 53.1033708,34.8102059 51.7910112,34.8075201 C51.5078652,34.820949 51.2494382,34.8021486 51,34.7806625 Z" id="Path"></path>
                            <path d="M45.4633675,22.9480323 C46.1266023,21.6715439 46.9015157,20.7810293 46.9015157,20.7810293 C46.9015157,20.7810293 46.5938295,21.9717457 45.9260364,23.2482341 C45.7847287,23.5156408 45.6411418,23.7679112 45.4952757,24 C46.0285985,23.7956609 47.0656151,23.2860747 47.5966587,22.2643794 C48.3351057,20.8491423 47.8336911,19 47.8336911,19 C47.8336911,19 46.1334397,19.4465187 45.3995511,20.851665 C44.8662283,21.8758829 44.9847445,23.1220989 45.0918649,23.7376387 C45.1967061,23.4828456 45.3197806,23.2179617 45.4633675,22.9480323 Z" id="Path"></path>
                            <path d="M38.3685484,15.1070491 C38.3685484,11.9537467 39,9.40153504 39,9.40153504 C39,9.40153504 39.633871,11.9585942 39.633871,15.1070491 C39.633871,15.7735811 39.6024194,16.4037568 39.5540323,17 C40.4201613,15.9989901 42,13.8297314 42,11.2993335 C42,7.81882448 39,5 39,5 C39,5 36,7.81882448 36,11.2993335 C36,13.8297314 37.5798387,15.9965664 38.4435484,17 C38.4,16.4037568 38.3685484,15.7760048 38.3685484,15.1070491 Z" id="Path"></path>
                            <path d="M18.0715746,25.0685915 C20.3335606,26.3166148 23.0829357,26.0321037 24.4251307,25.7858463 C23.8702568,25.537198 23.2878891,25.2455144 22.6955237,24.9203589 C19.8811634,23.3686978 17.9266076,21.5683884 17.9266076,21.5683884 C17.9266076,21.5683884 20.5335151,22.2856431 23.3478755,23.8396951 C23.9427403,24.1696322 24.4901159,24.5043511 25,24.8414609 C24.5551011,23.603001 23.437855,21.1834616 21.1733697,19.9354384 C18.0690752,18.2164178 14,19.3927156 14,19.3927156 C14,19.3927156 14.9647807,23.3543527 18.0715746,25.0685915 Z" id="Path"></path>
                            <path d="M59.925,42.9323722 C57.665,41.6864467 54.915,41.9662419 53.5725,42.2125573 C54.13,42.4636555 54.71,42.7554077 55.305,43.0806397 C58.1175,44.6350573 60.075,46.4333988 60.075,46.4333988 C60.075,46.4333988 57.4675,45.7183667 54.65,44.1639492 C54.055,43.831543 53.5075,43.4967453 53,43.1595563 C53.445,44.3983075 54.5625,46.8160247 56.8225,48.0643415 C59.9275,49.7837665 64,48.607192 64,48.607192 C64,48.607192 63.03,44.6470143 59.925,42.9323722 Z" id="Path"></path>
                            <path d="M25,43.1668659 C24.4902317,43.4990756 23.9454793,43.8336753 23.3507497,44.1658849 C20.5370286,45.7146034 17.9282144,46.4387727 17.9282144,46.4387727 C17.9282144,46.4387727 19.8823262,44.6367145 22.6960473,43.083216 C23.2932758,42.7510063 23.8730123,42.4713766 24.4277601,42.2156469 C23.0883689,41.9670871 20.3346206,41.6826774 18.0756474,42.9350361 C14.9695593,44.6486644 14,48.6065005 14,48.6065005 C14,48.6065005 18.0681508,49.7823794 21.174239,48.0687511 C23.4382099,46.8163923 24.5552022,44.4001047 25,43.1668659 Z" id="Path"></path>
                            <path d="M53,24.8344387 C53.5073847,24.5021807 54.0547603,24.1675323 54.6546239,23.8376647 C57.4664849,22.2839401 60.0733924,21.5668365 60.0733924,21.5668365 C60.0733924,21.5668365 58.1213361,23.3667666 55.3044763,24.9181008 C54.7096115,25.2479685 54.1272438,25.5348099 53.5773688,25.7834058 C54.9145649,26.0320018 57.6689389,26.3188432 59.9234265,25.0663022 C63.0327198,23.3500342 64,19.3916222 64,19.3916222 C64,19.3916222 59.9334242,18.2179626 56.8291297,19.9342306 C54.562145,21.1819909 53.4423995,23.6010205 53,24.8344387 Z" id="Path"></path>
                            <path d="M27.3351062,15 C26.8611753,14.3059322 26.3796003,13.5584746 25.9082175,12.7449153 C23.6863479,8.91101695 22.6594977,5.35169492 22.6594977,5.35169492 C22.6594977,5.35169492 25.2329934,8.01610169 27.4523149,11.8601695 C27.9236978,12.6686441 28.3288322,13.459322 28.6906504,14.2194915 C29.0473726,12.3915254 29.4525071,8.64152542 27.6688962,5.56016949 C25.2177053,1.3220339 19.5611108,0 19.5611108,0 C19.5611108,0 17.8819685,5.54745763 20.3331595,9.78305085 C22.1167704,12.8669492 25.5769755,14.3898305 27.3351062,15 Z" id="Path"></path>
                            <path d="M50.6621508,53 C51.1359976,53.6940678 51.6225823,54.4389831 52.0913341,55.25 C54.3153573,59.0991525 55.339478,62.6483051 55.339478,62.6483051 C55.339478,62.6483051 52.7664385,59.9813559 50.5424153,56.1423729 C50.0736635,55.3288136 49.6660533,54.5381356 49.3042992,53.7830508 C48.955283,55.6110169 48.5476728,59.3533898 50.3284199,62.4372881 C52.7817239,66.6728814 58.434768,68 58.434768,68 C58.434768,68 60.1212553,62.4474576 57.6679513,58.2118644 C55.8795615,55.1305085 52.4225174,53.6076271 50.6621508,53 Z" id="Path"></path>
                            <path d="M13.4731766,34.8476098 C9.27064497,34.8476098 5.86377336,34.0012017 5.86377336,34.0012017 C5.86377336,34.0012017 9.27064497,33.1547937 13.4731766,33.1547937 C14.3652803,33.1547937 15.2067511,33.202885 16,33.2605947 C14.6666667,32.1064019 11.7781796,30 8.39783002,30 C3.76130199,30.0024046 0,34.0012017 0,34.0012017 C0,34.0012017 3.76371308,38.0024035 8.39783002,38 C11.7757685,38 14.6642556,35.8960016 15.9975889,34.7442134 C15.20434,34.8043276 14.3604581,34.8476098 13.4731766,34.8476098 Z" id="Path"></path>
                            <path d="M69.60205,30 C66.225505,30 63.3361471,32.0980483 62,33.2577469 C62.7958999,33.1975966 63.6400362,33.1518823 64.5251733,33.1542883 C68.7313838,33.1542883 72.1368707,33.9987992 72.1368707,33.9987992 C72.1368707,33.9987992 68.7313838,34.845716 64.529997,34.845716 C63.6400362,34.845716 62.7958999,34.8000017 62,34.7422574 C63.3337353,35.894738 66.225505,38 69.60205,38 C74.2423877,38 78,34.0036112 78,34.0036112 C78,34.0036112 74.2375641,29.9951923 69.60205,30 Z" id="Path"></path>
                            <path d="M27.4530132,56.145858 C25.232582,59.9828901 22.6607522,62.6484838 22.6607522,62.6484838 C22.6607522,62.6484838 23.6843914,59.0909707 25.9048226,55.2539387 C26.3784467,54.445875 26.8597099,53.7013383 27.3358804,53 C25.573795,53.6098594 22.1158299,55.1345079 20.3333736,58.2168389 C17.8812231,62.4502795 19.5618247,68 19.5618247,68 C19.5618247,68 25.2173038,66.678638 27.666908,62.4451974 C29.4519106,59.3628663 29.0470384,55.6122311 28.6930935,53.7902761 C28.3238704,54.542436 27.9189982,55.3250889 27.4530132,56.145858 Z" id="Path"></path>
                            <path d="M50.550035,11.858692 C52.7677881,8.02100983 55.3394652,5.35750593 55.3394652,5.35750593 C55.3394652,5.35750593 54.3158868,8.91308031 52.0930412,12.7482209 C51.6245376,13.55388 51.143303,14.3061674 50.6697071,15 C52.4291415,14.3925788 55.8869014,12.867672 57.6667056,9.78736022 C60.1187105,5.5532023 58.4382087,0 58.4382087,0 C58.4382087,0 52.7881578,1.32412741 50.3361529,5.55828533 C48.5461638,8.6411386 48.9535582,12.3898678 49.3074821,14.214673 C49.674137,13.4649271 50.076439,12.6745171 50.550035,11.858692 Z" id="Path"></path>
                        </g>
                    </g>
                </g>
            </g>
        </g>
    </g>
</svg>