<?xml version="1.0" encoding="UTF-8"?>
<svg width="74px" height="74px" viewBox="0 0 74 74" version="1.1" xmlns="http://www.w3.org/2000/svg" xmlns:xlink="http://www.w3.org/1999/xlink">
    <!-- Generator: Sketch 57 (83077) - https://sketch.com -->
    <title>2043812</title>
    <desc>Created with Sketch.</desc>
    <g id="Demo-ðŸ•¹ï¸" stroke="none" stroke-width="1" fill="none" fill-rule="evenodd">
        <g id="Inspired-Practice-Planing-Page" transform="translate(-296.000000, -1722.000000)" fill="#6D4DC6" fill-rule="nonzero">
            <g id="studio-difference" transform="translate(167.000000, 1189.000000)">
                <g id="steps" transform="translate(1.000000, 533.000000)">
                    <g id="Set-clear-goals-and-2">
                        <g id="2043812" transform="translate(128.000000, 0.000000)">
                            <path d="M46.099832,30.8389219 C57.4962656,42.3923164 54.8689766,39.7429141 58.9647031,43.8383516 C59.7883867,44.6621797 60.8710703,45.0759727 61.9473945,45.0759727 C65.6115508,45.0755391 67.3898633,40.6404531 64.8300703,38.0802266 C64.3784102,37.6288555 63.6465039,37.6288555 63.1948437,38.0802266 C62.7433281,38.5318867 62.7433281,39.263793 63.1948437,39.7154531 C63.5346367,40.0551016 63.7219492,40.5070508 63.7228164,40.9841484 C63.7200703,42.5910469 61.7804609,43.3836563 60.5999297,42.2032695 C56.5026133,38.1062422 59.5056836,41.1361953 45.5001719,26.9380234 C45.0515469,26.4833281 44.3194961,26.4785586 43.8650898,26.9268945 C43.4103945,27.375375 43.4054805,28.1074258 43.8539609,28.5619766 L44.1873945,28.9000352 C43.2930352,32.2141367 43.2488086,35.3519102 43.2290078,39.869668 L37,39.869668 C36.3614609,39.869668 35.84375,40.3873789 35.84375,41.025918 C35.84375,41.664457 36.3614609,42.182168 37,42.182168 L44.2176016,42.182168 L54.0807031,45.0658555 C55.5631602,45.7555586 56.5167773,47.2472656 56.5167773,48.8865391 C56.5167773,51.2100234 54.6264531,53.1003477 52.3029687,53.1003477 L49.9693672,53.1003477 L49.9693672,49.6219141 L50.5701836,49.4717461 C51.1896445,49.3169531 51.5664375,48.6891094 51.4113555,48.0696484 C51.256707,47.450332 50.6295859,47.0733945 50.0092578,47.2284766 L39.1603086,49.9406055 C37.9791992,47.8677383 35.3019023,47.3534961 33.4160586,48.6110625 L32.3537539,49.3194102 L23.9901641,47.2284766 C23.3708477,47.0735391 22.7428594,47.4501875 22.5880664,48.0696484 C22.4331289,48.6891094 22.8097773,49.3169531 23.4292383,49.4717461 L24.0300547,49.6219141 L24.0300547,53.1003477 L21.6964531,53.1003477 C19.3729687,53.1003477 17.4826445,51.2100234 17.4826445,48.8865391 C17.4826445,47.2472656 18.4364062,45.7557031 19.9187187,45.0658555 L29.933,42.1379414 C30.4167461,42.0004922 30.7668008,41.558082 30.7724375,41.0396484 C30.7785078,40.6528828 30.7686797,38.2678281 30.726332,36.5658281 C30.647418,33.6039492 30.5104023,31.4880117 29.8121719,28.8998906 L30.1456055,28.561832 C30.5940859,28.1071367 30.5890273,27.3750859 30.1344766,26.92675 C29.6800703,26.4782695 28.9480195,26.4833281 28.4993945,26.9378789 C23.5000586,32.0060117 17.8613164,37.7417344 13.3994922,42.2032695 C12.6748125,42.9280938 11.5155273,42.9565664 10.8151289,42.2670078 C10.0957969,41.5588047 10.1021562,40.4175859 10.8047227,39.7153086 C11.2562383,39.2636484 11.2562383,38.5317422 10.8047227,38.080082 C9.13654297,36.4129141 6.3431875,41.1096016 9.19291016,43.9150977 C10.7934492,45.4906328 13.4139453,45.4595586 15.0347187,43.8384961 C19.1459102,39.7275938 16.5277266,42.367457 27.8997344,30.8389219 C28.4303086,33.4303672 28.4495312,37.1848555 28.4590703,40.1595977 C18.530207,43.0625078 19.1519805,42.8756289 19.04575,42.9226016 C16.6913359,43.9691523 15.1701445,46.310125 15.1701445,48.8865391 C15.1701445,52.4850781 18.0979141,55.4128477 21.6964531,55.4128477 L52.3026797,55.4128477 C55.9012187,55.4128477 58.8289883,52.4850781 58.8289883,48.8865391 C58.8289883,46.310125 57.3077969,43.9692969 54.9533828,42.9226016 C54.8467187,42.8753398 55.4689258,43.0625078 45.5400625,40.1595977 C45.5497461,37.2561094 45.5740273,33.4072422 46.099832,30.8389219 L46.099832,30.8389219 Z M35.6665547,50.2446992 C36.4668242,50.2446992 37.0700977,50.7381289 37.2866055,51.3892422 L37.3795391,51.6684766 C37.5701758,52.2421211 38.1709922,52.5725195 38.7570664,52.4250977 L47.6570117,50.2000391 L47.6570117,53.1003477 L30.0844687,53.1003477 C33.3002891,51.492582 33.1202031,51.5868164 33.2064883,51.5300156 C34.7781211,50.4367813 35.0723867,50.2446992 35.6665547,50.2446992 Z M26.3429883,50.2000391 L29.2573164,50.9286211 C28.302543,51.4060078 27.5699141,51.9520469 27.1766445,53.1003477 L26.3429883,53.1003477 L26.3429883,50.2000391 Z" id="Shape"></path>
                            <path d="M8.94359375,36.9219531 C11.6456055,36.9219531 13.5977891,36.9219531 15.8539219,34.6675547 L28.346625,21.975543 C28.774582,21.5475859 29.3849375,21.3646094 29.9789609,21.4854375 C30.1752344,21.5257617 43.8624883,21.5181016 44.0213281,21.4854375 C44.6165078,21.3638867 45.2258516,21.5475859 45.6473047,21.9690391 L58.1530156,34.6743477 C60.4023555,36.9219531 62.3543945,36.9219531 65.0565508,36.9219531 C65.6950898,36.9219531 66.2128008,36.4042422 66.2128008,35.7657031 C66.2128008,35.1271641 65.6950898,34.6094531 65.0565508,34.6094531 C62.5181484,34.6094531 61.3597305,34.6094531 59.7943125,33.0453359 L47.2890352,20.3403164 C46.3423555,19.3937812 45.0065977,18.9733398 43.6916523,19.1967852 L41.6119922,19.1967852 C41.8033516,18.9247773 41.971875,18.6352812 42.1078789,18.3259844 C42.8980313,16.5333633 43.3952187,15.5515625 43.7610273,13.8326523 C44.4706758,10.4949922 44.0412734,7.58976953 41.1097461,5.64669141 L41.1097461,4.10960156 C41.1096016,1.84205078 39.2781016,-2.84217094e-14 37,-2.84217094e-14 C34.7338945,-2.84217094e-14 32.8903984,1.84349609 32.8903984,4.10960156 L32.8903984,5.64654687 C31.0607773,6.85930859 29.9370469,8.79385937 29.9370469,10.9559023 C29.9370469,14.2331484 30.9744922,16.2441562 31.8916875,18.3248281 C32.0278359,18.6345586 32.1965039,18.9243437 32.3881523,19.1966406 L30.3083477,19.1966406 C28.9932578,18.9730508 27.6575,19.3937812 26.7046055,20.3466758 L14.2123359,33.0383984 C12.6404141,34.6094531 11.4818516,34.6094531 8.94359375,34.6094531 C8.30505469,34.6094531 7.78734375,35.1271641 7.78734375,35.7657031 C7.78734375,36.4042422 8.30505469,36.9219531 8.94359375,36.9219531 Z M35.2028984,4.10960156 C35.2028984,2.50949609 37.1461211,1.71616406 38.2704297,2.83613672 C38.8635859,3.43146094 38.7971016,4.04846484 38.7971016,4.64335547 C37.617293,4.35877344 36.3831406,4.35862891 35.203043,4.64335547 L35.203043,4.10960156 L35.2028984,4.10960156 Z M33.6004805,8.01411328 C34.4097109,7.27859375 34.4715703,7.58976953 34.867875,7.18970703 C36.1862891,6.60016406 37.781625,6.586 39.1319805,7.18970703 C39.2925547,7.35187109 39.5009687,7.46633984 39.7340977,7.51114453 C41.8944063,8.86814844 42.0210156,10.8950547 41.4986797,13.3515078 C41.1892383,14.8060703 40.7872969,15.5879844 39.9910742,17.3940469 C38.9377305,19.7893633 35.0616914,19.7892187 34.0080586,17.3930352 C33.1028594,15.3396797 32.2494023,13.7163047 32.2494023,10.9560469 C32.2496914,9.85067187 32.7293906,8.806 33.6004805,8.01411328 L33.6004805,8.01411328 Z" id="Shape"></path>
                            <path d="M72.84375,71.6875 L1.15625,71.6875 C0.517710937,71.6875 0,72.2052109 0,72.84375 C0,73.4822891 0.517710937,74 1.15625,74 L72.84375,74 C73.4822891,74 74,73.4822891 74,72.84375 C74,72.2052109 73.4822891,71.6875 72.84375,71.6875 Z" id="Path"></path>
                            <path d="M18.5,58.96875 L18.5,64.8753086 C18.5,65.5138477 19.0177109,66.0315586 19.65625,66.0315586 C20.2947891,66.0315586 20.8125,65.5138477 20.8125,64.8753086 L20.8125,58.96875 C20.8125,58.3302109 20.2947891,57.8125 19.65625,57.8125 C19.0177109,57.8125 18.5,58.3302109 18.5,58.96875 Z" id="Path"></path>
                            <path d="M53.1875,58.96875 L53.1875,68.21875 C53.1875,68.8572891 53.7052109,69.375 54.34375,69.375 C54.9822891,69.375 55.5,68.8572891 55.5,68.21875 L55.5,58.96875 C55.5,58.3302109 54.9822891,57.8125 54.34375,57.8125 C53.7052109,57.8125 53.1875,58.3302109 53.1875,58.96875 Z" id="Path"></path>
                            <path d="M35.84375,58.96875 L35.84375,66.3519844 C35.84375,66.9905234 36.3614609,67.5082344 37,67.5082344 C37.6385391,67.5082344 38.15625,66.9905234 38.15625,66.3519844 L38.15625,58.96875 C38.15625,58.3302109 37.6385391,57.8125 37,57.8125 C36.3614609,57.8125 35.84375,58.3302109 35.84375,58.96875 Z" id="Path"></path>
                            <path d="M25.4375,61.28125 L25.4375,68.6644844 C25.4375,69.3030234 25.9552109,69.8207344 26.59375,69.8207344 C27.2322891,69.8207344 27.75,69.3030234 27.75,68.6644844 L27.75,61.28125 C27.75,60.6427109 27.2322891,60.125 26.59375,60.125 C25.9552109,60.125 25.4375,60.6427109 25.4375,61.28125 Z" id="Path"></path>
                            <path d="M45.09375,61.28125 L45.09375,68.6644844 C45.09375,69.3030234 45.6114609,69.8207344 46.25,69.8207344 C46.8885391,69.8207344 47.40625,69.3030234 47.40625,68.6644844 L47.40625,61.28125 C47.40625,60.6427109 46.8885391,60.125 46.25,60.125 C45.6114609,60.125 45.09375,60.6427109 45.09375,61.28125 Z" id="Path"></path>
                        </g>
                    </g>
                </g>
            </g>
        </g>
    </g>
</svg>