<?xml version="1.0" encoding="UTF-8"?>
<svg width="64px" height="74px" viewBox="0 0 64 74" version="1.1" xmlns="http://www.w3.org/2000/svg" xmlns:xlink="http://www.w3.org/1999/xlink">
    <!-- Generator: Sketch 57 (83077) - https://sketch.com -->
    <title>plan</title>
    <desc>Created with Sketch.</desc>
    <g id="Demo-ðŸ•¹ï¸" stroke="none" stroke-width="1" fill="none" fill-rule="evenodd">
        <g id="Inspired-Practice-Planing-Page" transform="translate(-677.000000, -1726.000000)" fill="#6D4DC6" fill-rule="nonzero">
            <g id="studio-difference" transform="translate(167.000000, 1189.000000)">
                <g id="steps" transform="translate(1.000000, 533.000000)">
                    <g id="Create-a-customized,-2" transform="translate(376.000000, 4.000000)">
                        <g id="plan" transform="translate(133.000000, -0.000000)">
                            <path d="M45.7136089,32.6500214 C44.9173647,32.6500214 44.2718657,33.2955204 44.2718657,34.0917646 L44.2718657,34.1000677 C44.2718657,34.8963119 44.9173647,35.5376593 45.7136089,35.5376593 C46.5098531,35.5376593 47.1553521,34.8880088 47.1553521,34.0916214 C47.1553521,33.295234 46.5098531,32.6500214 45.7136089,32.6500214 Z" id="Path"></path>
                            <path d="M21.7481181,8.94550746 L31.9697351,8.94550746 C32.7659793,8.94550746 33.4114782,8.30000851 33.4114782,7.50376429 C33.4114782,6.70752007 32.7659793,6.06202112 31.9697351,6.06202112 L21.7481181,6.06202112 C20.9518739,6.06202112 20.306375,6.70752007 20.306375,7.50376429 C20.306375,8.30000851 20.9518739,8.94550746 21.7481181,8.94550746 L21.7481181,8.94550746 Z" id="Path"></path>
                            <path d="M61.1550491,49.1733058 C59.7263333,47.6556889 57.867428,46.8532889 55.7794701,46.8528594 C55.7787543,46.8528594 55.778468,46.8528594 55.7777522,46.8528594 C55.1040511,46.8528594 54.4114532,46.9424763 53.7178532,47.1088258 L53.7178532,8.25477061 C53.7178532,6.21749059 52.0575079,4.56000847 50.0166489,4.56000847 L42.3438152,4.56000847 C42.3694404,4.24362952 42.3828973,3.92481688 42.3828973,3.60357056 C42.3828973,1.61653896 40.5251373,2.84217094e-14 38.2414825,2.84217094e-14 L15.4763707,2.84217094e-14 C13.1904254,2.84217094e-14 11.3308043,1.61653896 11.3308043,3.60357056 C11.3308043,3.92481688 11.3442612,4.24362952 11.3698864,4.56000847 L3.69705267,4.56000847 C1.65848423,4.56000847 5.68434189e-14,6.21734743 5.68434189e-14,8.25477061 L5.68434189e-14,66.6047839 C5.68434189e-14,68.6420639 1.65848423,70.299546 3.69705267,70.299546 L43.6056089,70.299546 L44.4565394,71.2030155 C44.4847415,71.2329355 44.514232,71.2618534 44.5448678,71.2891965 C46.0414405,72.6277229 47.5085226,73.2968429 48.9674447,73.2968429 C50.449129,73.2968429 51.92251,72.606106 53.4074869,71.2246323 C53.4306785,71.2030155 53.4531542,71.1805397 53.4750574,71.1574913 L61.1551922,63.0039333 C64.746308,59.1883459 64.7460217,52.9837395 61.1550491,49.1733058 L61.1550491,49.1733058 Z M41.734392,7.44349482 L50.0167921,7.44349482 C50.4601521,7.44349482 50.83451,7.81498956 50.83451,8.25477061 L50.83451,48.2562363 C50.1756974,48.6270152 49.5405058,49.0626447 48.9484047,49.5585437 C48.3814995,49.0791079 47.7789479,48.65851 47.1556384,48.2980384 L47.1556384,40.2451204 C47.1556384,39.4488762 46.5101394,38.8033773 45.7138952,38.8033773 C44.917651,38.8033773 44.272152,39.4488762 44.272152,40.2451204 L44.272152,47.1231415 C43.5593689,46.9489184 42.8432931,46.8565815 42.1401015,46.8565815 C40.0305267,46.8565815 38.1614572,47.6576931 36.735032,49.1734489 C36.2557393,49.6828047 35.8425856,50.2358237 35.4914193,50.8193353 L27.9616003,50.8193353 C27.1653561,50.8193353 26.5198571,51.4648342 26.5198571,52.2610784 C26.5198571,53.0573227 27.1653561,53.7028216 27.9616003,53.7028216 L34.321533,53.7028216 C33.760354,56.0918406 34.0582656,58.6630996 35.2125477,60.860287 L9.44598747,60.860287 L9.44598747,13.9992675 L17.3593265,13.9992675 C20.0197728,15.6825181 23.3227118,16.5967244 26.8568508,16.5967244 C30.3922782,16.5967244 33.6957898,15.6825181 36.356093,13.9992675 L44.2718657,13.9992675 L44.2718657,27.9385519 C44.2718657,28.7347961 44.9173647,29.380295 45.7136089,29.380295 C46.5098531,29.380295 47.1553521,28.7347961 47.1553521,27.9385519 L47.1553521,12.5573812 C47.1553521,11.761137 46.5098531,11.115638 45.7136089,11.115638 L39.6533057,11.115638 C40.5736678,9.99757484 41.2738531,8.76054746 41.734392,7.44349482 L41.734392,7.44349482 Z M15.4763707,2.8836295 L38.2414825,2.8836295 C38.9976425,2.8836295 39.4994109,3.31696846 39.4994109,3.60357056 C39.4994109,4.31907373 39.4152341,5.01253058 39.2547541,5.67878743 C39.2520341,5.69052638 39.2484551,5.70197901 39.2460215,5.71386111 C38.6915709,7.97375166 37.2508299,9.91368431 35.2023835,11.3182064 C35.1431162,11.3534233 35.0861393,11.3919328 35.0327414,11.4350233 C32.8590319,12.8698949 30.0300887,13.7130949 26.8568508,13.7130949 C23.6969266,13.7130949 20.8780044,12.8774822 18.708017,11.4534906 C18.637297,11.3940801 18.5609939,11.3415412 18.4796802,11.2964464 C16.4584339,9.90094326 15.0347286,7.98176851 14.4769854,5.74836217 C14.4672507,5.69367585 14.4552254,5.63970532 14.439478,5.58745269 C14.2928844,4.94911163 14.2141475,4.28672005 14.2141475,3.60371372 C14.2141475,3.31696846 14.7176338,2.8836295 15.4763707,2.8836295 Z M3.69705267,67.4160597 C3.24839582,67.4160597 2.88348635,67.0521523 2.88348635,66.6047839 L2.88348635,8.25477061 C2.88348635,7.80754535 3.24839582,7.44349482 3.69705267,7.44349482 L11.9797391,7.44349482 C12.4404212,8.76054746 13.1408928,9.99743168 14.0615412,11.115638 L8.00424429,11.115638 C7.20800008,11.115638 6.56250112,11.761137 6.56250112,12.5573812 L6.56250112,62.3020301 C6.56250112,63.0982743 7.20800008,63.7437733 8.00424429,63.7437733 L37.4316383,63.7437733 L40.8900467,67.4160597 L3.69705267,67.4160597 L3.69705267,67.4160597 Z M59.0559248,61.0270659 L51.4098616,69.1445481 C49.5857437,70.8277986 48.3839331,70.8371039 46.5118573,69.1797649 C46.5118573,69.1797649 39.0947036,61.2994954 39.0526151,61.259268 L38.8350151,61.0282112 C36.7865688,58.8486322 36.377853,55.5787627 37.605432,52.9641269 C37.6350657,52.9113016 37.6612636,52.856329 37.6840257,52.7996385 C37.9815078,52.206249 38.3644551,51.6489353 38.8344425,51.1494574 C39.7147204,50.2140637 40.826771,49.7399247 42.1398152,49.7399247 C42.9927499,49.7399247 43.8987963,49.9486489 44.7842278,50.3291626 C44.9671836,50.48363 45.1887921,50.5935753 45.4327331,50.6418195 C46.3200258,51.1136679 47.167091,51.7537269 47.8950489,52.527209 C48.1674784,52.8165311 48.5471331,52.9807332 48.9445395,52.9808763 L48.9449689,52.9808763 C49.3422321,52.9808763 49.7218868,52.8169606 49.9943163,52.5279248 C51.5922448,50.8319332 53.8621564,49.7363458 55.7777522,49.7363458 L55.7787543,49.7363458 C57.0703248,49.7366321 58.1729269,50.2122026 59.0562111,51.1504595 C61.6205985,53.8716048 61.6203122,58.3024848 59.0559248,61.0270659 L59.0559248,61.0270659 Z" id="Shape"></path>
                            <path d="M22.1468129,19.8995202 L15.6797981,19.8995202 C14.8835538,19.8995202 14.2380549,20.5450192 14.2380549,21.3412634 L14.2380549,27.8015498 C14.2380549,28.597794 14.8835538,29.2432929 15.6797981,29.2432929 L22.1468129,29.2432929 C22.9430571,29.2432929 23.588556,28.597794 23.588556,27.8015498 L23.588556,21.3412634 C23.588556,20.5450192 22.9430571,19.8995202 22.1468129,19.8995202 Z M20.7050697,26.3598066 L17.1215412,26.3598066 L17.1215412,22.7831497 L20.7050697,22.7831497 L20.7050697,26.3598066 Z" id="Shape"></path>
                            <path d="M37.830333,23.1275876 L28.0821392,23.1275876 C27.285895,23.1275876 26.6403961,23.7730866 26.6403961,24.5693308 C26.6403961,25.365575 27.285895,26.011074 28.0821392,26.011074 L37.830333,26.011074 C38.6265772,26.011074 39.2720762,25.365575 39.2720762,24.5693308 C39.2720762,23.7730866 38.6265772,23.1275876 37.830333,23.1275876 Z" id="Path"></path>
                            <path d="M22.0304255,33.7453225 L15.5635538,33.7453225 C14.7673096,33.7453225 14.1218107,34.3908214 14.1218107,35.1870656 L14.1218107,41.647352 C14.1218107,42.4435962 14.7673096,43.0890952 15.5635538,43.0890952 L22.0304255,43.0890952 C22.8266697,43.0890952 23.4721687,42.4435962 23.4721687,41.647352 L23.4721687,35.1870656 C23.4721687,34.3908214 22.8266697,33.7453225 22.0304255,33.7453225 L22.0304255,33.7453225 Z M20.5886823,40.2056088 L17.005297,40.2056088 L17.005297,36.6288088 L20.5886823,36.6288088 L20.5886823,40.2056088 Z" id="Shape"></path>
                            <path d="M37.7099372,36.9733899 L28.8257014,36.9733899 C28.0294571,36.9733899 27.3839582,37.6188888 27.3839582,38.415133 C27.3839582,39.2113773 28.0294571,39.8568762 28.8257014,39.8568762 L37.7099372,39.8568762 C38.5061815,39.8568762 39.1516804,39.2113773 39.1516804,38.415133 C39.1516804,37.6188888 38.5060383,36.9733899 37.7099372,36.9733899 Z" id="Path"></path>
                            <path d="M22.0304255,47.5869731 L15.5635538,47.5869731 C14.7673096,47.5869731 14.1218107,48.2324721 14.1218107,49.0287163 L14.1218107,55.4890027 C14.1218107,56.2852469 14.7673096,56.9307459 15.5635538,56.9307459 L22.0304255,56.9307459 C22.8266697,56.9307459 23.4721687,56.2852469 23.4721687,55.4890027 L23.4721687,49.0287163 C23.4721687,48.2324721 22.8266697,47.5869731 22.0304255,47.5869731 Z M20.5886823,54.0472595 L17.005297,54.0472595 L17.005297,50.4704595 L20.5886823,50.4704595 L20.5886823,54.0472595 Z" id="Shape"></path>
                        </g>
                    </g>
                </g>
            </g>
        </g>
    </g>
</svg>