<?xml version="1.0" encoding="UTF-8"?>
<svg width="336px" height="545px" viewBox="0 0 336 545" version="1.1" xmlns="http://www.w3.org/2000/svg" xmlns:xlink="http://www.w3.org/1999/xlink">
    <!-- Generator: Sketch 58 (84663) - https://sketch.com -->
    <title>Shape</title>
    <desc>Created with Sketch.</desc>
    <g id="homepage" stroke="none" stroke-width="1" fill="none" fill-rule="evenodd" opacity="0.100000001">
        <g transform="translate(-567.000000, -2246.000000)" fill="#8154EF" fill-rule="nonzero" id="new-clients">
            <g transform="translate(-221.000000, 2041.000000)">
                <path d="M975.540444,354.948781 C917.471259,392.155121 880.456399,411.402116 880.456399,411.537659 C880.456399,411.673201 860.692501,453.894603 859.673743,466.50003 C858.174314,452.884744 857.448703,439.19566 857.500394,425.498508 C856.074133,426.176219 772.671842,488.661183 759.495911,520.378064 C743.603292,553.585908 767.781806,599.128095 767.645972,599.195866 C758.939326,609.463758 750.756268,620.162546 743.127871,631.251602 C732.193206,647.110042 725.061903,662.019687 725.673157,664.05282 C726.488164,668.254629 738.713255,694.210964 736.064485,672.049811 C733.415715,649.888658 778.784388,616.545271 782.044413,616.409729 C790.737811,620.204911 828.771429,617.019669 835.087726,621.085935 C841.404023,625.152202 871.423415,603.600988 871.898835,603.397675 C872.374255,603.194362 831.759785,616.274186 812.199638,600.347975 C838.681105,599.258684 864.99593,595.627468 890.77981,589.504597 C887.927288,590.656706 953.535279,522.817824 970.58249,514.210892 C983.622588,507.433781 1028.85543,473.548226 1029.46668,473.20937 C1030.07794,472.870514 1006.57859,483.849435 995.915596,474.225937 C1017.90962,470.429845 1039.44397,464.342324 1060.16524,456.063279 C1059.01065,456.605448 1123.39613,393.510543 1157.96598,355.016552 C1169.20724,348.250428 1179.35226,339.818234 1188.05328,330.009012 C1188.05328,330.009012 1200.61796,311.371956 1201.63672,299.376469 C1189.81913,305.340327 1184.38576,302.561711 1184.38576,302.561711 C1184.38576,302.561711 1197.96919,285.347849 1193.07915,273.894531 C1188.04832,275.756113 1182.79814,276.963335 1177.4582,277.4864 C1163.33701,279.484596 1149.42544,282.750867 1135.89289,287.24544 C1113.61606,294.700262 1034.42463,317.674669 975.540444,354.948781 Z M959.919493,438.578332 C1031.70795,392.08735 1122.92071,338.819256 1155.59013,324.722865 C1155.99638,324.722865 1057.10897,385.716865 978.325048,439.120501 C896.145266,493.811788 834.068969,540.438313 828.907263,546.605484 C817.768847,558.939826 792.979078,587.268151 791.077397,592.350984 C791.077397,593.164237 791.077397,593.435322 791.077397,592.960924 C791.057417,592.758099 791.057417,592.553809 791.077397,592.350984 C796.832817,572.339984 806.917881,553.832628 820.621368,538.134095 C831.284364,526.680777 885.95769,486.01811 959.919493,438.578332 L959.919493,438.578332 Z" id="Shape" transform="translate(963.636719, 477.394531) rotate(-21.000000) translate(-963.636719, -477.394531) "></path>
            </g>
        </g>
    </g>
</svg>