<?xml version="1.0" encoding="UTF-8"?>
<svg width="15px" height="18px" viewBox="0 0 15 18" version="1.1" xmlns="http://www.w3.org/2000/svg" xmlns:xlink="http://www.w3.org/1999/xlink">
    <!-- Generator: Sketch 58 (84663) - https://sketch.com -->
    <title>close</title>
    <desc>Created with Sketch.</desc>
    <g id="close" stroke="none" stroke-width="1" fill="none" fill-rule="evenodd">
        <path d="M8.904,8.36 L14.64,15.584 C14.8000008,15.7600009 14.88,15.9599989 14.88,16.184 C14.88,16.4400013 14.784001,16.6559991 14.592,16.832 C14.399999,17.0080009 14.1760013,17.096 13.92,17.096 C13.6639987,17.096 13.432001,16.984 13.224,16.76 L7.752,9.776 L2.256,16.76 C2.07999912,16.984 1.84800144,17.096 1.56,17.096 C1.3199988,17.096 1.10400096,17.0040009 0.912,16.82 C0.71999904,16.6359991 0.624,16.4240012 0.624,16.184 C0.624,15.991999 0.670079539,15.8256001 0.762239724,15.6848002 L6.6,8.36 L1.152,1.496 C0.9919992,1.31999912 0.912,1.1120012 0.912,0.872 C0.912,0.6319988 1.00399908,0.42400088 1.188,0.248 C1.37200092,0.07199912 1.5839988,-0.016 1.824,-0.016 C2.09600136,-0.016 2.32799904,0.1039988 2.52,0.344 L7.752,6.968 L12.96,0.344 C13.152001,0.1039988 13.3839986,-0.016 13.656,-0.016 C13.8960012,-0.016 14.111999,0.07599908 14.304,0.26 C14.496001,0.44400092 14.592,0.66399872 14.592,0.92 C14.592,1.14400112 14.5200007,1.3359992 14.376,1.496 L8.904,8.36 Z" id="X" fill="#333333" fill-rule="nonzero"></path>
    </g>
</svg>