<?xml version="1.0" encoding="UTF-8"?>
<svg width="33px" height="33px" viewBox="0 0 33 33" version="1.1" xmlns="http://www.w3.org/2000/svg" xmlns:xlink="http://www.w3.org/1999/xlink">
    <!-- Generator: Sketch 58 (84663) - https://sketch.com -->
    <title>confident-icon</title>
    <desc>Created with Sketch.</desc>
    <g id="homepage" stroke="none" stroke-width="1" fill="none" fill-rule="evenodd">
        <g transform="translate(-119.000000, -110.000000)" fill="#272135" fill-rule="nonzero" id="ipp-banner">
            <g transform="translate(0.000000, 100.000000)">
                <g id="content" transform="translate(119.000000, 8.000000)">
                    <g id="confident-icon" transform="translate(0.000000, 2.000000)">
                        <path d="M18.0392728,18.6470186 C19.0121039,18.1630343 19.3296181,16.7396758 18.7513974,15.4751743 C18.1721622,14.2064366 16.913264,13.5678316 15.9404329,14.0518158 C14.9676018,14.5358001 14.6500876,15.9591586 15.2293228,17.2278963 C15.808558,18.4945159 17.0674562,19.1331209 18.0392728,18.6470186 Z" id="Path"></path>
                        <path d="M20.7122437,11.0199999 C21.6392986,16.925338 17.5097817,21.3520392 17.5097817,21.3520392 C17.5097817,21.3520392 14.1052177,15.4896788 8.37999994,13.7204309 C19.5167249,22.0079605 13.1781628,32.3399997 13.1781628,32.3399997 L16.4017399,32.3399997 C16.4027454,32.3399997 23.8956015,19.1796197 20.7122437,11.0199999 Z" id="Path"></path>
                        <path d="M25.150047,2.99575245 C24.4180824,3.45283279 23.9515086,3.68928237 23.9515086,3.69094751 C23.9515086,3.69261265 23.7023838,4.2113031 23.6895423,4.36616092 C23.670642,4.19889697 23.6614956,4.03072639 23.6621472,3.86245671 C23.6441691,3.8707824 22.5928797,4.63841096 22.4267965,5.02805322 C22.2264694,5.436012 22.5312406,5.99549833 22.5295284,5.9963309 C22.4197808,6.12247207 22.316633,6.25390681 22.2204767,6.390136 C22.0826448,6.58495713 21.9927544,6.7681223 22.0004593,6.79309937 C22.0107325,6.84471864 22.1648303,7.16359255 22.1314424,6.8913425 C22.0980546,6.61909246 22.6699286,6.20946854 22.7110214,6.20780341 C22.820602,6.25442727 23.3000174,6.21529653 23.3796345,6.26525066 C23.4592517,6.3152048 23.8376474,6.05044788 23.8436401,6.04795017 C23.8496328,6.04545246 23.3376857,6.20613827 23.0911292,6.01048457 C23.4249292,5.99710261 23.7566287,5.95249308 24.0816356,5.87727354 C24.0456794,5.89142721 24.8726709,5.0580257 25.0875517,4.95228945 C25.2519227,4.86903256 25.8220845,4.45274809 25.8297894,4.44858524 C25.8374943,4.4444224 25.5412841,4.57929857 25.4068766,4.46107378 C25.6841122,4.41443875 25.9555536,4.33965348 26.2167461,4.2379453 C26.2021924,4.24460585 27.0137741,3.46948417 27.4495284,2.99658502 C27.591225,2.9134631 27.7191034,2.8098735 27.8287802,2.68936708 C27.8287802,2.68936708 27.9871585,2.46041062 28,2.31304592 C27.8510388,2.38631199 27.7825509,2.35217666 27.7825509,2.35217666 C27.7825509,2.35217666 27.9537707,2.14070415 27.8921315,2 C27.8287177,2.02286955 27.762539,2.03770029 27.6952288,2.04412615 C27.5172306,2.06867401 27.3418746,2.10880019 27.1712963,2.16401608 C26.8904959,2.25559866 25.8922846,2.53783953 25.150047,2.99575245 Z M24.9531442,4.02314252 C25.8580407,3.45200023 27.0077814,2.79760104 27.4195808,2.6244267 C27.4247016,2.6244267 26.1782217,3.37373875 25.185147,4.02980307 C24.1492674,4.7016862 23.3667931,5.27449363 23.3017296,5.3502574 C23.1613293,5.50178495 22.8488533,5.84979876 22.8248825,5.91224143 C22.8248825,5.92223226 22.8248825,5.92556254 22.8248825,5.91973455 C22.8246306,5.91724285 22.8246306,5.91473314 22.8248825,5.91224143 C22.8974298,5.66640606 23.0245525,5.43904295 23.1972855,5.24618628 C23.331693,5.10548213 24.0208526,4.60594077 24.9531442,4.02314252 L24.9531442,4.02314252 Z" id="Shape"></path>
                        <path d="M26.1000313,9.59745147 C25.612055,9.87169968 25.3010057,10.0135694 25.3010057,10.0145685 C25.3010057,10.0155676 25.1349225,10.3267819 25.1263616,10.4196966 C25.1137613,10.3193382 25.1076637,10.2184358 25.1080981,10.117474 C25.0961127,10.1224694 24.3952531,10.5830466 24.284531,10.8168319 C24.1509796,11.0616072 24.3541604,11.397299 24.3530189,11.3977985 C24.2798538,11.4734832 24.2110886,11.5523441 24.1469845,11.6340816 C24.0550965,11.7509743 23.9951696,11.8608734 24.0003062,11.8758596 C24.007155,11.9068312 24.1098869,12.0981555 24.0876283,11.9348055 C24.0653697,11.7714555 24.4466191,11.5256811 24.4740142,11.524682 C24.547068,11.5526564 24.8666782,11.5291779 24.9197564,11.5591504 C24.9728345,11.5891229 25.2250983,11.4302687 25.2290934,11.4287701 C25.2330885,11.4272715 24.8917905,11.523683 24.7274195,11.4062907 C24.9499528,11.3982616 25.1710858,11.3714958 25.3877571,11.3263641 C25.3637863,11.3348563 25.915114,10.8348154 26.0583678,10.7713737 C26.1679485,10.7214195 26.5480564,10.4716489 26.553193,10.4691511 C26.5583295,10.4666534 26.3608561,10.5475791 26.2712511,10.4766443 C26.4560748,10.4486632 26.6370357,10.4037921 26.8111641,10.3427672 C26.8014616,10.3467635 27.3425161,9.8816905 27.633019,9.59795101 C27.7274833,9.54807786 27.8127356,9.4859241 27.8858535,9.41362025 C27.8858535,9.41362025 27.991439,9.27624637 28,9.18782755 C27.9006925,9.23178719 27.8550339,9.211306 27.8550339,9.211306 C27.8550339,9.211306 27.9691804,9.08442249 27.9280877,9 C27.8858118,9.01372173 27.8416926,9.02262017 27.7968192,9.02647569 C27.6781537,9.04120441 27.5612498,9.06528011 27.4475309,9.09840965 C27.2603306,9.1533592 26.5948564,9.32270372 26.1000313,9.59745147 Z M25.9687628,10.2138855 C26.5720271,9.87120014 27.338521,9.47856062 27.6130539,9.37465602 C27.6164677,9.37465602 26.7854811,9.82424325 26.1234313,10.2178818 C25.4328449,10.6210117 24.9111954,10.9646962 24.8678197,11.0101544 C24.7742196,11.101071 24.5659022,11.3098793 24.5499217,11.3473449 C24.5499217,11.3533394 24.5499217,11.3553375 24.5499217,11.3518407 C24.5497538,11.3503457 24.5497538,11.3488399 24.5499217,11.3473449 C24.5982865,11.1998436 24.683035,11.0634258 24.7981903,10.9477118 C24.8877953,10.8632893 25.3472351,10.5635645 25.9687628,10.2138855 L25.9687628,10.2138855 Z" id="Shape"></path>
                        <path d="M20.3536995,9.48973599 C19.9877172,9.67256813 19.7544303,9.76714796 19.7544303,9.76781401 C19.7544303,9.76848007 19.6298679,9.97595625 19.6234472,10.0378994 C19.613997,9.9709938 19.6094238,9.90372557 19.6097496,9.83641769 C19.6007605,9.83974797 19.0751159,10.1467994 18.9920743,10.3026563 C18.8919107,10.4658398 19.0442963,10.6896343 19.0434402,10.6899674 C18.9885664,10.7404238 18.9369925,10.7929977 18.8889144,10.8474894 C18.8199984,10.9254179 18.7750532,10.9986839 18.7789057,11.0086748 C18.7840423,11.0293225 18.8610911,11.156872 18.8443972,11.047972 C18.8277033,10.939072 19.1136403,10.7752224 19.1341867,10.7745564 C19.188977,10.7932059 19.4286847,10.7775536 19.4684933,10.7975353 C19.5083019,10.8175169 19.6974997,10.7116142 19.7004961,10.7106151 C19.7034924,10.709616 19.4475189,10.7738903 19.3242406,10.6956288 C19.4911406,10.6902761 19.6569904,10.6724322 19.8194938,10.6423444 C19.8015157,10.6480059 20.2150115,10.3146453 20.3224519,10.2723508 C20.4046374,10.239048 20.6897183,10.0725342 20.6935707,10.0708691 C20.6974232,10.069204 20.5493181,10.1231544 20.4821143,10.0758645 C20.6207321,10.0572105 20.7564528,10.0272964 20.8870491,9.98661313 C20.8797722,9.98927735 21.2855631,9.67922868 21.5034402,9.49006902 C21.5742885,9.45682025 21.6382277,9.41538441 21.6930661,9.36718184 C21.6930661,9.36718184 21.7722553,9.27559926 21.778676,9.21665338 C21.7041954,9.2459598 21.6699515,9.23230567 21.6699515,9.23230567 C21.6699515,9.23230567 21.7555613,9.14771667 21.7247418,9.09143501 C21.6930348,9.10058283 21.6599455,9.10651513 21.6262904,9.10908547 C21.5372913,9.11890461 21.4496133,9.13495509 21.3643242,9.15704144 C21.223924,9.19367448 20.7248183,9.30657082 20.3536995,9.48973599 Z M20.2552481,9.90069202 C20.7076964,9.6722351 21.2825667,9.41047543 21.4884664,9.34120569 C21.4910268,9.34120569 20.8677868,9.64093051 20.3712495,9.90335624 C19.8533097,10.1721095 19.4620725,10.4012325 19.4295408,10.431538 C19.3593407,10.492149 19.2031026,10.6313545 19.1911173,10.6563316 C19.1911173,10.6603279 19.1911173,10.66166 19.1911173,10.6593288 C19.1909913,10.6583322 19.1909913,10.6573283 19.1911173,10.6563316 C19.2273909,10.5579974 19.2909522,10.4670522 19.3773188,10.3899095 C19.4445225,10.3336279 19.7891023,10.1338113 20.2552481,9.90069202 L20.2552481,9.90069202 Z" id="Shape" transform="translate(20.278676, 10.091435) rotate(-25.000000) translate(-20.278676, -10.091435) "></path>
                        <path d="M23.7500157,13.398301 C23.5060275,13.5811331 23.3505029,13.6757129 23.3505029,13.676379 C23.3505029,13.6770451 23.2674613,13.8845212 23.2631808,13.9464644 C23.2568807,13.8795588 23.2538319,13.8122906 23.2540491,13.7449827 C23.2480564,13.748313 22.8976266,14.0553644 22.8422656,14.2112213 C22.7754899,14.3744048 22.8770802,14.5981993 22.8765095,14.5985324 C22.839927,14.6489888 22.8055444,14.7015627 22.7734923,14.7560544 C22.7275483,14.8339829 22.6975849,14.9072489 22.7001532,14.9172397 C22.7035775,14.9378875 22.7549435,15.065437 22.7438142,14.956537 C22.7326849,14.847637 22.9233096,14.6837874 22.9370072,14.6831214 C22.973534,14.7017709 23.1333392,14.6861186 23.1598782,14.7061003 C23.1864173,14.7260819 23.3125492,14.6201792 23.3145468,14.6191801 C23.3165443,14.618181 23.1458953,14.6824553 23.0637098,14.6041938 C23.1749765,14.598841 23.285543,14.5809972 23.3938786,14.5509094 C23.3818932,14.5565709 23.657557,14.2232103 23.729184,14.1809158 C23.7839743,14.147613 23.9740282,13.9810992 23.9765965,13.9794341 C23.9791648,13.977769 23.8804281,14.0317194 23.8356256,13.9844295 C23.9280374,13.9657755 24.0185179,13.9358614 24.1055821,13.8951781 C24.1007309,13.8978423 24.3712581,13.5877937 24.5165095,13.398634 C24.5637417,13.3653852 24.6063679,13.3239494 24.6429268,13.2757468 C24.6429268,13.2757468 24.6957196,13.1841642 24.7,13.1252184 C24.6503463,13.1545248 24.627517,13.1408707 24.627517,13.1408707 C24.627517,13.1408707 24.6845903,13.0562817 24.6640439,13 C24.6429059,13.0091478 24.6208464,13.0150801 24.5984097,13.0176505 C24.5390769,13.0274696 24.4806249,13.0435201 24.4237655,13.0656064 C24.3301653,13.1022395 23.9974283,13.2151358 23.7500157,13.398301 Z M23.6843815,13.809257 C23.9860136,13.5808001 24.3692605,13.3190404 24.506527,13.2497707 C24.5082339,13.2497707 24.0927406,13.5494955 23.7617157,13.8119212 C23.4164225,14.0806745 23.1555977,14.3097975 23.1339099,14.340103 C23.0871098,14.400714 22.9829511,14.5399195 22.9749609,14.5648966 C22.9749609,14.5688929 22.9749609,14.570225 22.9749609,14.5678938 C22.9748769,14.5668971 22.9748769,14.5658933 22.9749609,14.5648966 C22.9991433,14.4665624 23.0415175,14.3756172 23.0990952,14.2984745 C23.1438977,14.2421929 23.3736176,14.0423763 23.6843815,13.809257 L23.6843815,13.809257 Z" id="Shape" transform="translate(23.700000, 14.000000) rotate(25.000000) translate(-23.700000, -14.000000) "></path>
                        <path d="M29.150047,14.9957524 C28.4180824,15.4528328 27.9515086,15.6892824 27.9515086,15.6909475 C27.9515086,15.6926126 27.7023838,16.2113031 27.6895423,16.3661609 C27.670642,16.198897 27.6614956,16.0307264 27.6621472,15.8624567 C27.6441691,15.8707824 26.5928797,16.638411 26.4267965,17.0280532 C26.2264694,17.436012 26.5312406,17.9954983 26.5295284,17.9963309 C26.4197808,18.1224721 26.316633,18.2539068 26.2204767,18.390136 C26.0826448,18.5849571 25.9927544,18.7681223 26.0004593,18.7930994 C26.0107325,18.8447186 26.1648303,19.1635925 26.1314424,18.8913425 C26.0980546,18.6190925 26.6699286,18.2094685 26.7110214,18.2078034 C26.820602,18.2544273 27.3000174,18.2152965 27.3796345,18.2652507 C27.4592517,18.3152048 27.8376474,18.0504479 27.8436401,18.0479502 C27.8496328,18.0454525 27.3376857,18.2061383 27.0911292,18.0104846 C27.4249292,17.9971026 27.7566287,17.9524931 28.0816356,17.8772735 C28.0456794,17.8914272 28.8726709,17.0580257 29.0875517,16.9522894 C29.2519227,16.8690326 29.8220845,16.4527481 29.8297894,16.4485852 C29.8374943,16.4444224 29.5412841,16.5792986 29.4068766,16.4610738 C29.6841122,16.4144387 29.9555536,16.3396535 30.2167461,16.2379453 C30.2021924,16.2446059 31.0137741,15.4694842 31.4495284,14.996585 C31.591225,14.9134631 31.7191034,14.8098735 31.8287802,14.6893671 C31.8287802,14.6893671 31.9871585,14.4604106 32,14.3130459 C31.8510388,14.386312 31.7825509,14.3521767 31.7825509,14.3521767 C31.7825509,14.3521767 31.9537707,14.1407042 31.8921315,14 C31.8287177,14.0228696 31.762539,14.0377003 31.6952288,14.0441262 C31.5172306,14.068674 31.3418746,14.1088002 31.1712963,14.1640161 C30.8904959,14.2555987 29.8922846,14.5378395 29.150047,14.9957524 Z M28.9531442,16.0231425 C29.8580407,15.4520002 31.0077814,14.797601 31.4195808,14.6244267 C31.4247016,14.6244267 30.1782217,15.3737387 29.185147,16.0298031 C28.1492674,16.7016862 27.3667931,17.2744936 27.3017296,17.3502574 C27.1613293,17.5017849 26.8488533,17.8497988 26.8248825,17.9122414 C26.8248825,17.9222323 26.8248825,17.9255625 26.8248825,17.9197346 C26.8246306,17.9172429 26.8246306,17.9147331 26.8248825,17.9122414 C26.8974298,17.6664061 27.0245525,17.439043 27.1972855,17.2461863 C27.331693,17.1054821 28.0208526,16.6059408 28.9531442,16.0231425 L28.9531442,16.0231425 Z" id="Shape-Copy" transform="translate(29.000000, 16.500000) rotate(37.000000) translate(-29.000000, -16.500000) "></path>
                        <path d="M26.150047,19.9957524 C25.4180824,20.4528328 24.9515086,20.6892824 24.9515086,20.6909475 C24.9515086,20.6926126 24.7023838,21.2113031 24.6895423,21.3661609 C24.670642,21.198897 24.6614956,21.0307264 24.6621472,20.8624567 C24.6441691,20.8707824 23.5928797,21.638411 23.4267965,22.0280532 C23.2264694,22.436012 23.5312406,22.9954983 23.5295284,22.9963309 C23.4197808,23.1224721 23.316633,23.2539068 23.2204767,23.390136 C23.0826448,23.5849571 22.9927544,23.7681223 23.0004593,23.7930994 C23.0107325,23.8447186 23.1648303,24.1635925 23.1314424,23.8913425 C23.0980546,23.6190925 23.6699286,23.2094685 23.7110214,23.2078034 C23.820602,23.2544273 24.3000174,23.2152965 24.3796345,23.2652507 C24.4592517,23.3152048 24.8376474,23.0504479 24.8436401,23.0479502 C24.8496328,23.0454525 24.3376857,23.2061383 24.0911292,23.0104846 C24.4249292,22.9971026 24.7566287,22.9524931 25.0816356,22.8772735 C25.0456794,22.8914272 25.8726709,22.0580257 26.0875517,21.9522894 C26.2519227,21.8690326 26.8220845,21.4527481 26.8297894,21.4485852 C26.8374943,21.4444224 26.5412841,21.5792986 26.4068766,21.4610738 C26.6841122,21.4144387 26.9555536,21.3396535 27.2167461,21.2379453 C27.2021924,21.2446059 28.0137741,20.4694842 28.4495284,19.996585 C28.591225,19.9134631 28.7191034,19.8098735 28.8287802,19.6893671 C28.8287802,19.6893671 28.9871585,19.4604106 29,19.3130459 C28.8510388,19.386312 28.7825509,19.3521767 28.7825509,19.3521767 C28.7825509,19.3521767 28.9537707,19.1407042 28.8921315,19 C28.8287177,19.0228696 28.762539,19.0377003 28.6952288,19.0441262 C28.5172306,19.068674 28.3418746,19.1088002 28.1712963,19.1640161 C27.8904959,19.2555987 26.8922846,19.5378395 26.150047,19.9957524 Z M25.9531442,21.0231425 C26.8580407,20.4520002 28.0077814,19.797601 28.4195808,19.6244267 C28.4247016,19.6244267 27.1782217,20.3737387 26.185147,21.0298031 C25.1492674,21.7016862 24.3667931,22.2744936 24.3017296,22.3502574 C24.1613293,22.5017849 23.8488533,22.8497988 23.8248825,22.9122414 C23.8248825,22.9222323 23.8248825,22.9255625 23.8248825,22.9197346 C23.8246306,22.9172429 23.8246306,22.9147331 23.8248825,22.9122414 C23.8974298,22.6664061 24.0245525,22.439043 24.1972855,22.2461863 C24.331693,22.1054821 25.0208526,21.6059408 25.9531442,21.0231425 L25.9531442,21.0231425 Z" id="Shape-Copy" transform="translate(26.000000, 21.500000) rotate(54.000000) translate(-26.000000, -21.500000) "></path>
                        <path d="M24.150047,26.1949029 C23.4180824,26.7433994 22.9515086,27.0271388 22.9515086,27.029137 C22.9515086,27.0311352 22.7023838,27.6535637 22.6895423,27.8393931 C22.670642,27.6386764 22.6614956,27.4368717 22.6621472,27.2349481 C22.6441691,27.2449389 21.5928797,28.1660932 21.4267965,28.6336639 C21.2264694,29.1232144 21.5312406,29.794598 21.5295284,29.7955971 C21.4197808,29.9469665 21.316633,30.1046882 21.2204767,30.2681632 C21.0826448,30.5019486 20.9927544,30.7217468 21.0004593,30.7517192 C21.0107325,30.8136624 21.1648303,31.1963111 21.1314424,30.869611 C21.0980546,30.542911 21.6699286,30.0513623 21.7110214,30.0493641 C21.820602,30.1053127 22.3000174,30.0583558 22.3796345,30.1183008 C22.4592517,30.1782458 22.8376474,29.8605375 22.8436401,29.8575402 C22.8496328,29.854543 22.3376857,30.0473659 22.0911292,29.8125815 C22.4249292,29.7965231 22.7566287,29.7429917 23.0816356,29.6527282 C23.0456794,29.6697127 23.8726709,28.6696308 24.0875517,28.5427473 C24.2519227,28.4428391 24.8220845,27.9432977 24.8297894,27.9383023 C24.8374943,27.9333069 24.5412841,28.0951583 24.4068766,27.9532885 C24.6841122,27.8973265 24.9555536,27.8075842 25.2167461,27.6855344 C25.2021924,27.693527 26.0137741,26.763381 26.4495284,26.195902 C26.591225,26.0961557 26.7191034,25.9718482 26.8287802,25.8272405 C26.8287802,25.8272405 26.9871585,25.5524927 27,25.3756551 C26.8510388,25.4635744 26.7825509,25.422612 26.7825509,25.422612 C26.7825509,25.422612 26.9537707,25.168845 26.8921315,25 C26.8287177,25.0274435 26.762539,25.0452403 26.6952288,25.0529514 C26.5172306,25.0824088 26.3418746,25.1305602 26.1712963,25.1968193 C25.8904959,25.3067184 24.8922846,25.6454074 24.150047,26.1949029 Z M23.9531442,27.427771 C24.8580407,26.7424003 26.0077814,25.9571212 26.4195808,25.749312 C26.4247016,25.749312 25.1782217,26.6484865 24.185147,27.4357637 C23.1492674,28.2420234 22.3667931,28.9293924 22.3017296,29.0203089 C22.1613293,29.2021419 21.8488533,29.6197585 21.8248825,29.6946897 C21.8248825,29.7066787 21.8248825,29.710675 21.8248825,29.7036815 C21.8246306,29.7006914 21.8246306,29.6976798 21.8248825,29.6946897 C21.8974298,29.3996873 22.0245525,29.1268515 22.1972855,28.8954235 C22.331693,28.7265786 23.0208526,28.1271289 23.9531442,27.427771 L23.9531442,27.427771 Z" id="Shape-Copy" transform="translate(24.000000, 28.000000) rotate(82.000000) translate(-24.000000, -28.000000) "></path>
                        <path d="M10.150047,25.9957524 C9.41808244,26.4528328 8.95150857,26.6892824 8.95150857,26.6909475 C8.95150857,26.6926126 8.70238381,27.2113031 8.68954233,27.3661609 C8.67064196,27.198897 8.6614956,27.0307264 8.66214716,26.8624567 C8.64416909,26.8707824 7.59287971,27.638411 7.42679654,28.0280532 C7.22646941,28.436012 7.53124059,28.9954983 7.5295284,28.9963309 C7.41978076,29.1224721 7.31663297,29.2539068 7.22047671,29.390136 C7.0826448,29.5849571 6.99275442,29.7681223 7.00045931,29.7930994 C7.0107325,29.8447186 7.16483029,30.1635925 7.13144243,29.8913425 C7.09805458,29.6190925 7.66992861,29.2094685 7.71102135,29.2078034 C7.820602,29.2544273 8.30001735,29.2152965 8.37963455,29.2652507 C8.45925174,29.3152048 8.83764743,29.0504479 8.84364012,29.0479502 C8.84963281,29.0454525 8.3376857,29.2061383 8.09112924,29.0104846 C8.42492924,28.9971026 8.75662871,28.9524931 9.0816356,28.8772735 C9.04567945,28.8914272 9.87267093,28.0580257 10.0875517,27.9522894 C10.2519227,27.8690326 10.8220845,27.4527481 10.8297894,27.4485852 C10.8374943,27.4444224 10.5412841,27.5792986 10.4068766,27.4610738 C10.6841122,27.4144387 10.9555536,27.3396535 11.2167461,27.2379453 C11.2021924,27.2446059 12.0137741,26.4694842 12.4495284,25.996585 C12.591225,25.9134631 12.7191034,25.8098735 12.8287802,25.6893671 C12.8287802,25.6893671 12.9871585,25.4604106 13,25.3130459 C12.8510388,25.386312 12.7825509,25.3521767 12.7825509,25.3521767 C12.7825509,25.3521767 12.9537707,25.1407042 12.8921315,25 C12.8287177,25.0228696 12.762539,25.0377003 12.6952288,25.0441262 C12.5172306,25.068674 12.3418746,25.1088002 12.1712963,25.1640161 C11.8904959,25.2555987 10.8922846,25.5378395 10.150047,25.9957524 Z M9.95314422,27.0231425 C10.8580407,26.4520002 12.0077814,25.797601 12.4195808,25.6244267 C12.4247016,25.6244267 11.1782217,26.3737387 10.185147,27.0298031 C9.14926741,27.7016862 8.36679306,28.2744936 8.30172955,28.3502574 C8.16132934,28.5017849 7.84885326,28.8497988 7.8248825,28.9122414 C7.8248825,28.9222323 7.8248825,28.9255625 7.8248825,28.9197346 C7.82463065,28.9172429 7.82463065,28.9147331 7.8248825,28.9122414 C7.89742981,28.6664061 8.02455247,28.439043 8.19728549,28.2461863 C8.33169301,28.1054821 9.02085258,27.6059408 9.95314422,27.0231425 L9.95314422,27.0231425 Z" id="Shape-Copy" transform="translate(10.000000, 27.500000) rotate(158.000000) translate(-10.000000, -27.500000) "></path>
                        <path d="M8.15004695,18.9957524 C7.41808244,19.4528328 6.95150857,19.6892824 6.95150857,19.6909475 C6.95150857,19.6926126 6.70238381,20.2113031 6.68954233,20.3661609 C6.67064196,20.198897 6.6614956,20.0307264 6.66214716,19.8624567 C6.64416909,19.8707824 5.59287971,20.638411 5.42679654,21.0280532 C5.22646941,21.436012 5.53124059,21.9954983 5.5295284,21.9963309 C5.41978076,22.1224721 5.31663297,22.2539068 5.22047671,22.390136 C5.0826448,22.5849571 4.99275442,22.7681223 5.00045931,22.7930994 C5.0107325,22.8447186 5.16483029,23.1635925 5.13144243,22.8913425 C5.09805458,22.6190925 5.66992861,22.2094685 5.71102135,22.2078034 C5.820602,22.2544273 6.30001735,22.2152965 6.37963455,22.2652507 C6.45925174,22.3152048 6.83764743,22.0504479 6.84364012,22.0479502 C6.84963281,22.0454525 6.3376857,22.2061383 6.09112924,22.0104846 C6.42492924,21.9971026 6.75662871,21.9524931 7.0816356,21.8772735 C7.04567945,21.8914272 7.87267093,21.0580257 8.08755174,20.9522894 C8.25192272,20.8690326 8.82208454,20.4527481 8.82978943,20.4485852 C8.83749432,20.4444224 8.54128412,20.5792986 8.40687661,20.4610738 C8.68411218,20.4144387 8.9555536,20.3396535 9.21674611,20.2379453 C9.20219243,20.2446059 10.0137741,19.4694842 10.4495284,18.996585 C10.591225,18.9134631 10.7191034,18.8098735 10.8287802,18.6893671 C10.8287802,18.6893671 10.9871585,18.4604106 11,18.3130459 C10.8510388,18.386312 10.7825509,18.3521767 10.7825509,18.3521767 C10.7825509,18.3521767 10.9537707,18.1407042 10.8921315,18 C10.8287177,18.0228696 10.762539,18.0377003 10.6952288,18.0441262 C10.5172306,18.068674 10.3418746,18.1088002 10.1712963,18.1640161 C9.8904959,18.2555987 8.89228465,18.5378395 8.15004695,18.9957524 Z M10.4195965,18.6244267 C10.4247016,18.6244267 9.17822166,19.3737387 8.18514701,20.0298031 C7.14926741,20.7016862 6.36679306,21.2744936 6.30172955,21.3502574 C6.16132934,21.5017849 5.84885326,21.8497988 5.8248825,21.9122414 C5.8248825,21.9222323 5.8248825,21.9255625 5.8248825,21.9197346 C5.82463065,21.9172429 5.82463065,21.9147331 5.8248825,21.9122414 C5.89742981,21.6664061 6.02455247,21.439043 6.19728549,21.2461863 C6.33169301,21.1054821 7.02085258,20.6059408 7.95314422,20.0231425 C8.8580407,19.4520002 10.0077814,18.797601 10.4195965,18.6244267 Z" id="Shape-Copy" transform="translate(8.000000, 20.500000) rotate(187.000000) translate(-8.000000, -20.500000) "></path>
                        <path d="M4.15004695,13.9957524 C3.41808244,14.4528328 2.95150857,14.6892824 2.95150857,14.6909475 C2.95150857,14.6926126 2.70238381,15.2113031 2.68954233,15.3661609 C2.67064196,15.198897 2.6614956,15.0307264 2.66214716,14.8624567 C2.64416909,14.8707824 1.59287971,15.638411 1.42679654,16.0280532 C1.22646941,16.436012 1.53124059,16.9954983 1.5295284,16.9963309 C1.41978076,17.1224721 1.31663297,17.2539068 1.22047671,17.390136 C1.0826448,17.5849571 0.992754422,17.7681223 1.00045931,17.7930994 C1.0107325,17.8447186 1.16483029,18.1635925 1.13144243,17.8913425 C1.09805458,17.6190925 1.66992861,17.2094685 1.71102135,17.2078034 C1.820602,17.2544273 2.30001735,17.2152965 2.37963455,17.2652507 C2.45925174,17.3152048 2.83764743,17.0504479 2.84364012,17.0479502 C2.84963281,17.0454525 2.3376857,17.2061383 2.09112924,17.0104846 C2.42492924,16.9971026 2.75662871,16.9524931 3.0816356,16.8772735 C3.04567945,16.8914272 3.87267093,16.0580257 4.08755174,15.9522894 C4.25192272,15.8690326 4.82208454,15.4527481 4.82978943,15.4485852 C4.83749432,15.4444224 4.54128412,15.5792986 4.40687661,15.4610738 C4.68411218,15.4144387 4.9555536,15.3396535 5.21674611,15.2379453 C5.20219243,15.2446059 6.01377413,14.4694842 6.44952844,13.996585 C6.59122501,13.9134631 6.71910342,13.8098735 6.82878023,13.6893671 C6.82878023,13.6893671 6.98715852,13.4604106 7,13.3130459 C6.8510388,13.386312 6.78255089,13.3521767 6.78255089,13.3521767 C6.78255089,13.3521767 6.95377066,13.1407042 6.89213155,13 C6.82871769,13.0228696 6.76253896,13.0377003 6.69522881,13.0441262 C6.51723056,13.068674 6.34187463,13.1088002 6.17129632,13.1640161 C5.8904959,13.2555987 4.89228465,13.5378395 4.15004695,13.9957524 Z M3.95314422,15.0231425 C4.8580407,14.4520002 6.00778144,13.797601 6.41958081,13.6244267 C6.42470158,13.6244267 5.17822166,14.3737387 4.18514701,15.0298031 C3.14926741,15.7016862 2.36679306,16.2744936 2.30172955,16.3502574 C2.16132934,16.5017849 1.84885326,16.8497988 1.8248825,16.9122414 C1.8248825,16.9222323 1.8248825,16.9255625 1.8248825,16.9197346 C1.82463065,16.9172429 1.82463065,16.9147331 1.8248825,16.9122414 C1.89742981,16.6664061 2.02455247,16.439043 2.19728549,16.2461863 C2.33169301,16.1054821 3.02085258,15.6059408 3.95314422,15.0231425 L3.95314422,15.0231425 Z" id="Shape-Copy" transform="translate(4.000000, 15.500000) rotate(222.000000) translate(-4.000000, -15.500000) "></path>
                        <path d="M11.150047,2.99575245 C10.4180824,3.45283279 9.95150857,3.68928237 9.95150857,3.69094751 C9.95150857,3.69261265 9.70238381,4.2113031 9.68954233,4.36616092 C9.67064196,4.19889697 9.6614956,4.03072639 9.66214716,3.86245671 C9.64416909,3.8707824 8.59287971,4.63841096 8.42679654,5.02805322 C8.22646941,5.436012 8.53124059,5.99549833 8.5295284,5.9963309 C8.41978076,6.12247207 8.31663297,6.25390681 8.22047671,6.390136 C8.0826448,6.58495713 7.99275442,6.7681223 8.00045931,6.79309937 C8.0107325,6.84471864 8.16483029,7.16359255 8.13144243,6.8913425 C8.09805458,6.61909246 8.66992861,6.20946854 8.71102135,6.20780341 C8.820602,6.25442727 9.30001735,6.21529653 9.37963455,6.26525066 C9.45925174,6.3152048 9.83764743,6.05044788 9.84364012,6.04795017 C9.84963281,6.04545246 9.3376857,6.20613827 9.09112924,6.01048457 C9.42492924,5.99710261 9.75662871,5.95249308 10.0816356,5.87727354 C10.0456794,5.89142721 10.8726709,5.0580257 11.0875517,4.95228945 C11.2519227,4.86903256 11.8220845,4.45274809 11.8297894,4.44858524 C11.8374943,4.4444224 11.5412841,4.57929857 11.4068766,4.46107378 C11.6841122,4.41443875 11.9555536,4.33965348 12.2167461,4.2379453 C12.2021924,4.24460585 13.0137741,3.46948417 13.4495284,2.99658502 C13.591225,2.9134631 13.7191034,2.8098735 13.8287802,2.68936708 C13.8287802,2.68936708 13.9871585,2.46041062 14,2.31304592 C13.8510388,2.38631199 13.7825509,2.35217666 13.7825509,2.35217666 C13.7825509,2.35217666 13.9537707,2.14070415 13.8921315,2 C13.8287177,2.02286955 13.762539,2.03770029 13.6952288,2.04412615 C13.5172306,2.06867401 13.3418746,2.10880019 13.1712963,2.16401608 C12.8904959,2.25559866 11.8922846,2.53783953 11.150047,2.99575245 Z M10.9531442,4.02314252 C11.8580407,3.45200023 13.0077814,2.79760104 13.4195808,2.6244267 C13.4247016,2.6244267 12.1782217,3.37373875 11.185147,4.02980307 C10.1492674,4.7016862 9.36679306,5.27449363 9.30172955,5.3502574 C9.16132934,5.50178495 8.84885326,5.84979876 8.8248825,5.91224143 C8.8248825,5.92223226 8.8248825,5.92556254 8.8248825,5.91973455 C8.82463065,5.91724285 8.82463065,5.91473314 8.8248825,5.91224143 C8.89742981,5.66640606 9.02455247,5.43904295 9.19728549,5.24618628 C9.33169301,5.10548213 10.0208526,4.60594077 10.9531442,4.02314252 L10.9531442,4.02314252 Z" id="Shape-Copy" transform="translate(11.000000, 4.500000) rotate(-90.000000) translate(-11.000000, -4.500000) "></path>
                        <path d="M17.4828855,3.60174707 C16.6289269,4.05882742 16.0845907,4.295277 16.0845907,4.29694213 C16.0845907,4.29860727 15.7939452,4.81729772 15.7789635,4.97215554 C15.756913,4.80489159 15.7462423,4.63672102 15.7470024,4.46845133 C15.726028,4.47677702 14.4995237,5.24440558 14.30576,5.63404785 C14.072045,6.04200663 14.4276114,6.60149295 14.4256139,6.60232552 C14.297575,6.7284667 14.1772359,6.85990143 14.0650536,6.99613063 C13.9042497,7.19095176 13.7993776,7.37411692 13.8083666,7.39909399 C13.820352,7.45071327 14.0001327,7.76958717 13.9611802,7.49733713 C13.9222277,7.22508708 14.5894141,6.81546317 14.6373556,6.81379803 C14.7651997,6.86042189 15.3245177,6.82129115 15.4174044,6.87124529 C15.5102911,6.92119942 15.9517527,6.6564425 15.9587442,6.65394479 C15.9657357,6.65144709 15.3684641,6.81213289 15.0808148,6.61647919 C15.4702482,6.60309724 15.8572309,6.5584877 16.2364056,6.48326816 C16.1944568,6.49742183 17.1592802,5.66402033 17.4099744,5.55828407 C17.6017406,5.47502718 18.2669294,5.05874271 18.2759184,5.05457987 C18.2849074,5.05041702 17.9393289,5.18529319 17.7825201,5.0670684 C18.1059616,5.02043337 18.4226433,4.9456481 18.7273679,4.84393993 C18.7103886,4.85060048 19.6572339,4.0754788 20.1656139,3.60257964 C20.3309266,3.51945772 20.4801181,3.41586812 20.6080743,3.2953617 C20.6080743,3.2953617 20.792849,3.06640525 20.8078307,2.91904054 C20.6340427,2.99230661 20.5541401,2.95817128 20.5541401,2.95817128 C20.5541401,2.95817128 20.7538965,2.74669877 20.6819842,2.60599462 C20.6080014,2.62886418 20.5307929,2.64369491 20.4522644,2.65012078 C20.2445997,2.67466863 20.0400178,2.71479481 19.8410098,2.7700107 C19.5134093,2.86159329 18.3488295,3.14383416 17.4828855,3.60174707 Z M17.2531657,4.62913714 C18.3088782,4.05799485 19.6502424,3.40359566 20.130675,3.23042133 C20.1366492,3.23042133 18.6824227,3.97973337 17.5238356,4.63579769 C16.3153094,5.30768082 15.4024226,5.88048825 15.3265152,5.95625202 C15.162715,6.10777957 14.7981595,6.45579339 14.7701937,6.51823606 C14.7701937,6.52822688 14.7701937,6.53155716 14.7701937,6.52572918 C14.7698998,6.52323747 14.7698998,6.52072776 14.7701937,6.51823606 C14.8548322,6.27240068 15.003142,6.04503758 15.2046638,5.85218091 C15.3614726,5.71147676 16.1654921,5.2119354 17.2531657,4.62913714 L17.2531657,4.62913714 Z" id="Shape-Copy" transform="translate(17.307831, 5.105995) rotate(-52.000000) translate(-17.307831, -5.105995) "></path>
                        <path d="M9.1000313,10.5974515 C8.61205496,10.8716997 8.30100572,11.0135694 8.30100572,11.0145685 C8.30100572,11.0155676 8.13492254,11.3267819 8.12636155,11.4196966 C8.11376131,11.3193382 8.10766373,11.2184358 8.10809811,11.117474 C8.09611273,11.1224694 7.39525314,11.5830466 7.28453102,11.8168319 C7.1509796,12.0616072 7.3541604,12.397299 7.35301893,12.3977985 C7.27985384,12.4734832 7.21108865,12.5523441 7.14698448,12.6340816 C7.05509653,12.7509743 6.99516961,12.8608734 7.00030621,12.8758596 C7.007155,12.9068312 7.10988686,13.0981555 7.08762829,12.9348055 C7.06536972,12.7714555 7.44661907,12.5256811 7.47401423,12.524682 C7.547068,12.5526564 7.86667824,12.5291779 7.91975636,12.5591504 C7.97283449,12.5891229 8.22509829,12.4302687 8.22909341,12.4287701 C8.23308854,12.4272715 7.89179047,12.523683 7.72741949,12.4062907 C7.94995283,12.3982616 8.17108581,12.3714958 8.38775707,12.3263641 C8.3637863,12.3348563 8.91511395,11.8348154 9.05836783,11.7713737 C9.16794848,11.7214195 9.54805636,11.4716489 9.55319296,11.4691511 C9.55832955,11.4666534 9.36085608,11.5475791 9.27125107,11.4766443 C9.45607479,11.4486632 9.63703573,11.4037921 9.81116407,11.3427672 C9.80146162,11.3467635 10.3425161,10.8816905 10.633019,10.597951 C10.7274833,10.5480779 10.8127356,10.4859241 10.8858535,10.4136202 C10.8858535,10.4136202 10.991439,10.2762464 11,10.1878276 C10.9006925,10.2317872 10.8550339,10.211306 10.8550339,10.211306 C10.8550339,10.211306 10.9691804,10.0844225 10.9280877,10 C10.8858118,10.0137217 10.8416926,10.0226202 10.7968192,10.0264757 C10.6781537,10.0412044 10.5612498,10.0652801 10.4475309,10.0984096 C10.2603306,10.1533592 9.59485643,10.3227037 9.1000313,10.5974515 Z M8.96876281,11.2138855 C9.57202713,10.8712001 10.338521,10.4785606 10.6130539,10.374656 C10.6164677,10.374656 9.78548111,10.8242432 9.12343134,11.2178818 C8.43284494,11.6210117 7.91119538,11.9646962 7.8678197,12.0101544 C7.77421956,12.101071 7.56590218,12.3098793 7.54992166,12.3473449 C7.54992166,12.3533394 7.54992166,12.3553375 7.54992166,12.3518407 C7.54975376,12.3503457 7.54975376,12.3488399 7.54992166,12.3473449 C7.59828654,12.1998436 7.68303498,12.0634258 7.79819033,11.9477118 C7.88779534,11.8632893 8.34723505,11.5635645 8.96876281,11.2138855 L8.96876281,11.2138855 Z" id="Shape-Copy" transform="translate(9.000000, 11.500000) rotate(-116.000000) translate(-9.000000, -11.500000) "></path>
                        <path d="M13.0500157,10.398301 C12.8060275,10.5811331 12.6505029,10.6757129 12.6505029,10.676379 C12.6505029,10.6770451 12.5674613,10.8845212 12.5631808,10.9464644 C12.5568807,10.8795588 12.5538319,10.8122906 12.5540491,10.7449827 C12.5480564,10.748313 12.1976266,11.0553644 12.1422655,11.2112213 C12.0754898,11.3744048 12.1770802,11.5981993 12.1765095,11.5985324 C12.1399269,11.6489888 12.1055443,11.7015627 12.0734922,11.7560544 C12.0275483,11.8339829 11.9975848,11.9072489 12.0001531,11.9172397 C12.0035775,11.9378875 12.0549434,12.065437 12.0438141,11.956537 C12.0326849,11.847637 12.2233095,11.6837874 12.2370071,11.6831214 C12.273534,11.7017709 12.4333391,11.6861186 12.4598782,11.7061003 C12.4864172,11.7260819 12.6125491,11.6201792 12.6145467,11.6191801 C12.6165443,11.618181 12.4458952,11.6824553 12.3637097,11.6041938 C12.4749764,11.598841 12.5855429,11.5809972 12.6938785,11.5509094 C12.6818931,11.5565709 12.957557,11.2232103 13.0291839,11.1809158 C13.0839742,11.147613 13.2740282,10.9810992 13.2765965,10.9794341 C13.2791648,10.977769 13.180428,11.0317194 13.1356255,10.9844295 C13.2280374,10.9657755 13.3185179,10.9358614 13.405582,10.8951781 C13.4007308,10.8978423 13.671258,10.5877937 13.8165095,10.398634 C13.8637417,10.3653852 13.9063678,10.3239494 13.9429267,10.2757468 C13.9429267,10.2757468 13.9957195,10.1841642 14,10.1252184 C13.9503463,10.1545248 13.927517,10.1408707 13.927517,10.1408707 C13.927517,10.1408707 13.9845902,10.0562817 13.9640438,10 C13.9429059,10.0091478 13.9208463,10.0150801 13.8984096,10.0176505 C13.8390769,10.0274696 13.7806249,10.0435201 13.7237654,10.0656064 C13.6301653,10.1022395 13.2974282,10.2151358 13.0500157,10.398301 Z M12.9843814,10.809257 C13.2860136,10.5808001 13.6692605,10.3190404 13.8065269,10.2497707 C13.8082339,10.2497707 13.3927406,10.5494955 13.0617157,10.8119212 C12.7164225,11.0806745 12.4555977,11.3097975 12.4339099,11.340103 C12.3871098,11.400714 12.2829511,11.5399195 12.2749608,11.5648966 C12.2749608,11.5688929 12.2749608,11.570225 12.2749608,11.5678938 C12.2748769,11.5668971 12.2748769,11.5658933 12.2749608,11.5648966 C12.2991433,11.4665624 12.3415175,11.3756172 12.3990952,11.2984745 C12.4438977,11.2421929 12.6736175,11.0423763 12.9843814,10.809257 L12.9843814,10.809257 Z" id="Shape-Copy" transform="translate(13.000000, 11.000000) rotate(-90.000000) translate(-13.000000, -11.000000) "></path>
                    </g>
                </g>
            </g>
        </g>
    </g>
</svg>