<?xml version="1.0" encoding="UTF-8" standalone="no"?>
<svg width="50px" height="50px" viewBox="0 0 50 50" version="1.1" xmlns="http://www.w3.org/2000/svg" xmlns:xlink="http://www.w3.org/1999/xlink">
    <!-- Generator: Sketch 42 (36781) - http://www.bohemiancoding.com/sketch -->
    <title>1490565124_phone1</title>
    <desc>Created with Sketch.</desc>
    <defs></defs>
    <g id="Page-1" stroke="none" stroke-width="1" fill="none" fill-rule="evenodd">
        <g id="1490565124_phone1">
            <rect id="Rectangle-path" x="0" y="0" width="50" height="50"></rect>
            <path d="M30.217,35.252 C30.217,35.252 34.266,32.934 35.326,32.377 C36.383,31.818 37.478,31.677 38.143,32.083 C39.15,32.699 47.606,38.324 48.318,38.822 C49.03,39.321 49.373,40.746 48.394,42.142 C47.419,43.538 42.921,49.058 41.015,48.999 C39.106,48.937 31.169,48.763 16.202,33.792 C1.238,18.826 1.061,10.887 1,8.978 C0.939,7.07 6.459,2.571 7.855,1.595 C9.253,0.62 10.68,0.987 11.176,1.673 C11.74,2.454 17.3,10.883 17.912,11.849 C18.331,12.509 18.177,13.61 17.618,14.668 C17.062,15.728 14.744,19.777 14.744,19.777 C14.744,19.777 16.378,22.564 21.904,28.089 C27.431,33.615 30.217,35.252 30.217,35.252 Z" id="Shape" stroke="#9DA890" stroke-width="2"></path>
        </g>
    </g>
</svg>