<?xml version="1.0" encoding="UTF-8"?>
<svg width="37px" height="24px" viewBox="0 0 37 24" version="1.1" xmlns="http://www.w3.org/2000/svg" xmlns:xlink="http://www.w3.org/1999/xlink">
    <!-- Generator: Sketch 58 (84663) - https://sketch.com -->
    <title>yoga-mat</title>
    <desc>Created with Sketch.</desc>
    <g id="classes" stroke="none" stroke-width="1" fill="none" fill-rule="evenodd">
        <g transform="translate(-232.000000, -1397.000000)" fill="#8154EF" fill-rule="nonzero" id="breathe">
            <g transform="translate(-836.000000, 1390.000000)">
                <g transform="translate(956.000000, 0.000000)">
                    <g id="yoga-mat" transform="translate(112.000000, 7.000000)">
                        <path d="M35.8051196,13.1365998 L35.6622396,13.1365998 L19.2082398,13.1365998 L20.4265197,12.3993998 C20.4500797,12.3826798 21.9487997,11.4015199 22.6335597,10.4317599 C22.7186797,10.2934399 22.7794797,10.1429599 22.8516797,9.99779987 C23.4193997,9.05311989 23.7492397,7.9488399 23.7492397,6.76627992 C23.7492397,3.29307996 20.9319197,0.476519994 17.4594798,0.476519994 C16.5778798,0.476519994 15.7456798,0.672599992 14.9849198,1.00243999 C14.5722398,1.20459998 13.7742398,1.63171998 13.7742398,1.63171998 L10.3397999,3.72095995 L10.3397999,3.72095995 L4.20431995,7.12727991 L4.21039995,7.12727991 C2.74359997,7.9108399 1.57623998,9.17395988 0.937839988,10.7251199 L0.934799988,10.7152399 C0.934799988,10.7152399 -0.371639995,13.2467998 0.173279998,16.3529198 C0.177079998,16.3772398 0.183159998,16.4000398 0.186959998,16.4258798 C0.213559997,16.5695198 0.239399997,16.7139198 0.274359997,16.8598398 C0.275879997,16.8575598 0.276639997,16.8552798 0.278159997,16.8522398 C0.394439995,17.3409198 0.557839993,17.8250398 0.78355999,18.2969998 C0.78355999,18.2969998 0.870199989,18.4710398 1.02067999,18.7355198 C1.07159999,18.8244398 1.12327999,18.9141198 1.17799999,19.0022798 C1.52379998,19.5699998 2.10975997,20.3687597 2.85835996,21.0656797 C3.25279996,21.4107197 4.11463995,22.1258797 4.90199994,22.5263997 C6.18335992,23.1511197 8.2155999,23.7933197 11.1666799,23.8366397 L11.1666799,23.8442397 L11.2457199,23.8442397 L11.4653599,23.8442397 L17.5035598,23.8442397 L27.0377597,23.8442397 L27.1851997,23.8442397 L35.6607196,14.1131998 L35.6629996,14.1093998 L35.8035996,13.9490398 L35.8035996,13.9330798 L36.4374395,13.1373598 L35.8051196,13.1373598 L35.8051196,13.1365998 Z M13.8677198,3.88739995 C14.5311998,3.46559996 15.9181998,2.74739997 16.1043998,2.65163997 C16.5307598,2.50191997 16.9821998,2.41071997 17.4602398,2.41071997 C19.8656398,2.41071997 21.8150397,4.36087995 21.8150397,6.76627992 C21.8150397,7.6349599 21.5566397,8.43827989 21.1158397,9.11467989 L21.1013997,9.11087989 C21.0823997,9.14963989 21.0603597,9.18611988 21.0405997,9.22411988 C20.7738397,9.60715988 20.4500797,9.94687988 20.0769197,10.2273199 L20.0890797,10.2379599 L14.7949198,13.6678398 C14.7964398,13.6009598 14.8063198,13.5371198 14.8063198,13.4709998 C14.8063198,10.2052799 12.6311998,7.46015991 9.65351988,6.57171992 L13.8677198,3.88739995 Z M26.8842397,21.9343597 L11.2472399,21.9343597 L11.2472399,21.9442397 C10.2630399,21.9389197 8.0704399,21.8226397 6.02299992,20.9934797 C5.86643993,20.9205197 5.71139993,20.8475597 5.56775993,20.7662397 C5.56015993,20.7624397 5.55331993,20.7578797 5.54647993,20.7540797 C5.35115993,20.6423597 5.16723994,20.5222797 4.99775994,20.3930797 C4.99775994,20.3945997 4.99775994,20.3953597 4.99623994,20.3983997 C4.95215994,20.3641997 4.90199994,20.3330397 4.86019994,20.2980797 C4.84955994,20.2889597 4.84803994,20.2843997 4.83891994,20.2767997 C4.76443994,20.2235997 4.68919994,20.1711597 4.61699994,20.1141597 C4.44523994,19.9796397 4.29019995,19.8466398 4.14199995,19.7121198 C4.13515995,19.7060398 4.12907995,19.7007198 4.12375995,19.6953998 C2.91535996,18.5835198 2.46163997,17.4936798 2.46163997,17.4936798 C2.21083997,16.9707998 2.05579997,16.4258798 1.98587998,15.8794398 C1.98511998,15.8786798 1.98511998,15.8786798 1.98511998,15.8786798 C1.98435998,15.8748798 1.98435998,15.8718398 1.98359998,15.8680398 C1.95927998,15.6727198 1.94407998,15.4773998 1.94103998,15.2828398 C1.78371998,12.7497598 2.79907996,11.1020799 2.79907996,11.1020799 L2.80287996,11.1058799 C3.67535995,9.33811988 5.48795993,8.1167999 7.5939199,8.1167999 C10.3276399,8.1167999 12.5787598,10.1672799 12.9025198,12.8128398 C12.9139198,13.0058798 12.9344398,13.6427598 12.7611598,14.0478398 C12.5498798,14.6018798 12.1394798,15.4249598 11.4478799,15.9105998 C11.3939199,15.9539198 11.3353999,15.9972398 11.2631999,16.0443598 C11.2388799,16.0603198 11.2137999,16.0671598 11.1887199,16.0831198 C11.1811199,16.0869198 11.1757999,16.0937598 11.1674399,16.0975598 C11.1590799,16.1028798 11.1499599,16.1043998 11.1400799,16.1081998 C9.81463988,16.8833998 8.47019989,16.4000398 8.47019989,16.4000398 L8.47095989,16.3947198 C8.1813999,16.3301198 7.9085599,16.2199198 7.6683999,16.0603198 C7.6395199,16.0405598 7.6129199,16.0192798 7.5847999,15.9987598 C6.97755991,15.5602398 6.57855992,14.8496398 6.57855992,14.0447998 C6.57855992,13.1381198 7.08243991,12.3583598 7.8203999,11.9464399 L7.8165999,11.9395999 C7.8165999,11.9395999 8.44283989,11.4767599 9.20891988,11.7602399 C9.21803988,11.7632799 9.22183988,11.7670799 9.23095988,11.7708799 C9.24235988,11.7754399 9.25223988,11.7799999 9.26287988,11.7860799 C9.42855988,11.8552399 9.52355988,11.9236399 9.56383988,11.9882398 C9.81843988,12.2124398 9.98867987,12.5301198 9.98867987,12.8949198 C9.98867987,13.2733998 9.80475988,13.5956398 9.53115988,13.8160398 C9.30315988,13.9771598 9.14431989,14.2294798 9.14431989,14.5296798 C9.14431989,15.0206398 9.54255988,15.4196398 10.0335199,15.4196398 C10.3040799,15.4196398 10.5351199,15.2889198 10.6962399,15.0951198 L10.6992799,15.0966398 C10.6992799,15.0966398 11.0116399,14.7318398 11.1415999,14.5600798 C11.1507199,14.5456398 11.1621199,14.5334798 11.1719999,14.5190398 C11.1773199,14.5114398 11.1894799,14.4969998 11.1932799,14.4909198 C11.1955599,14.4878798 11.1925199,14.4855998 11.1932799,14.4817998 C11.5025999,14.0273198 11.6918399,13.4869598 11.6918399,12.8941598 C11.6918399,11.2821999 10.3846399,9.97347987 8.77191989,9.97347987 C8.67007989,9.97347987 8.57583989,9.99855987 8.47703989,10.0099599 L8.47703989,10.0069199 C8.46791989,10.0084399 8.45879989,10.0122399 8.44891989,10.0129999 C8.2490399,10.0365599 8.0575199,10.0783599 7.8735999,10.1406799 C6.16511992,10.6293599 4.90883994,12.1782398 4.90883994,14.0425198 C4.90883994,15.6445998 5.83907993,17.0156398 7.18047991,17.6867198 L7.17287991,17.7011598 C7.17287991,17.7011598 7.23215991,17.7262398 7.32183991,17.7642398 C7.38263991,17.7908398 7.44343991,17.8151598 7.50499991,17.8409998 C7.7763199,17.9527198 8.1403599,18.0963598 8.2946399,18.1313198 C8.2946399,18.1313198 10.5427199,18.7993598 13.1312798,17.1007598 L13.1327998,17.1060798 L13.3250798,16.9776398 C13.3265998,16.9745998 13.3296398,16.9730798 13.3311598,16.9723198 L14.5836398,16.1271998 L16.6903598,14.7614798 L33.0349196,14.7614798 L26.8842397,21.9343597 Z" id="Shape"></path>
                    </g>
                </g>
            </g>
        </g>
    </g>
</svg>