<?xml version="1.0" encoding="UTF-8"?>
<svg width="1456px" height="495px" viewBox="0 0 1456 495" version="1.1" xmlns="http://www.w3.org/2000/svg" xmlns:xlink="http://www.w3.org/1999/xlink">
    <!-- Generator: Sketch 58 (84663) - https://sketch.com -->
    <title>bg</title>
    <desc>Created with Sketch.</desc>
    <g id="Symbols" stroke="none" stroke-width="1" fill="none" fill-rule="evenodd">
        <g id="footer" transform="translate(10.000000, 0.000000)">
            <g transform="translate(-10.000000, 0.000000)" id="bg">
                <g>
                    <path d="M0,0 C39.9208016,35.4081572 80.2438547,58.6574093 120.969159,69.7477562 C182.057116,86.3832765 263.774072,79.0961457 328.291652,79.0961457 C489.068934,79.0961457 557.546993,156.99154 642.061387,156.99154 C814.696465,156.99154 925.733645,54.7885802 1044.17151,54.7885802 C1123.13008,54.7885802 1260.40625,73.4836229 1456,110.873708 L1456,371 L6.04149378,371 L0,0 Z" id="pink" fill="#F7CCCB"></path>
                    <path d="M3.02074689,53.7773437 C117.382022,88.9020206 225.793272,106.464359 328.254495,106.464359 C481.94633,106.464359 531.050517,195.65758 673.173795,195.65758 C815.297073,195.65758 918.368389,79 1044.17151,79 C1128.04025,79 1265.31642,97.4726352 1456,134.417906 L1456,495 L0,495 L3.02074689,53.7773437 Z" id="purple" fill="#C8B0E5"></path>
                </g>
            </g>
        </g>
    </g>
</svg>