<?xml version="1.0" encoding="UTF-8"?>
<svg width="1446px" height="495px" viewBox="0 0 1446 495" version="1.1" xmlns="http://www.w3.org/2000/svg" xmlns:xlink="http://www.w3.org/1999/xlink">
    <!-- Generator: Sketch 58 (84663) - https://sketch.com -->
    <title>bg</title>
    <desc>Created with Sketch.</desc>
    <g id="Symbols" stroke="none" stroke-width="1" fill="none" fill-rule="evenodd">
        <g id="footer">
            <g id="bg">
                <g>
                    <path d="M0,0 C39.6466202,35.4081572 79.6927293,58.6574093 120.138327,69.7477562 C180.806724,86.3832765 261.962437,79.0961457 326.036902,79.0961457 C485.709944,79.0961457 553.717686,156.99154 637.651624,156.99154 C809.101022,156.99154 919.375584,54.7885802 1037,54.7885802 C1115.41628,54.7885802 1251.74961,73.4836229 1446,110.873708 L1446,371 L6,371 L0,0 Z" id="pink" fill="#F7CCCB"></path>
                    <path d="M3,53.7773437 C116.575827,88.9020206 224.242494,106.464359 326,106.464359 C478.636259,106.464359 527.403192,195.65758 668.550349,195.65758 C809.697505,195.65758 912.060914,79 1037,79 C1120.29272,79 1256.62606,97.4726352 1446,134.417906 L1446,495 L0,495 L3,53.7773437 Z" id="purple" fill="#C8B0E5"></path>
                </g>
            </g>
        </g>
    </g>
</svg>